<svg width="48" height="48" viewBox="0 0 48 48" xmlns="http://www.w3.org/2000/svg">
    <path d="m33.823 32.807-4.064-4.03c3.03-3.513 2.859-8.818-.483-12.16C27.554 14.862 25.246 14 22.973 14a8.946 8.946 0 0 0-6.338 2.618 8.94 8.94 0 0 0 0 12.676 8.973 8.973 0 0 0 6.338 2.618 8.857 8.857 0 0 0 5.821-2.17l4.065 4.064a.655.655 0 0 0 .448.172.68.68 0 0 0 .482-.206c.275-.242.275-.69.034-.965zM17.6 28.295c-1.447-1.412-2.205-3.341-2.205-5.34 0-1.997.792-3.926 2.205-5.373 1.446-1.446 3.34-2.204 5.373-2.204 2.032 0 3.927.792 5.373 2.204a7.642 7.642 0 0 1 2.205 5.374 7.642 7.642 0 0 1-2.205 5.373 7.703 7.703 0 0 1-5.373 2.205 7.59 7.59 0 0 1-5.373-2.24z" fill="#1C1C1E" fill-rule="nonzero" stroke="#1C1C1E" stroke-width=".1"/>
</svg>
