<svg xmlns="http://www.w3.org/2000/svg" width="20" height="20.001" viewBox="0 0 20 20.001">
  <g id="icon_search" fill="none">
    <path d="M14.273,15.674a8.794,8.794,0,1,1,1.4-1.4L20,18.6,18.6,20Z" stroke="none"/>
    <path d="M 8.794329643249512 15.58867168426514 C 10.32971000671387 15.58864116668701 11.83234977722168 15.06403160095215 13.02545928955078 14.11148166656494 L 13.62966156005859 13.62910079956055 L 14.11148929595947 13.0255708694458 C 16.26850891113281 10.32371139526367 16.04808044433594 6.439261436462402 13.59873962402344 3.989971160888672 C 12.31551933288574 2.706721305847168 10.60931968688965 2.000001192092896 8.794429779052734 2.000001192092896 C 6.979529857635498 2.000001192092896 5.273289680480957 2.70673131942749 3.990009784698486 3.989991188049316 C 2.706729650497437 5.273251056671143 1.999999642372131 6.979471206665039 1.999999642372131 8.794361114501953 C 1.999999642372131 10.6092414855957 2.706729650497437 12.31546115875244 3.989999771118164 13.59871101379395 C 5.273309707641602 14.88200092315674 6.979519844055176 15.58871078491211 8.794329643249512 15.58867168426514 M 18.59893035888672 20.00083160400391 L 14.27329921722412 15.67446136474609 C 10.82075977325439 18.43089294433594 5.773359775543213 18.21044158935547 2.575799703598022 15.01294136047363 C -0.8586003184318542 11.57858085632324 -0.8586003184318542 6.010131359100342 2.575799703598022 2.575771331787109 C 6.010199546813965 -0.8585889339447021 11.57868957519531 -0.8585889339447021 15.01296997070312 2.575771331787109 C 18.21052932739258 5.773261070251465 18.43091011047363 10.82071113586426 15.67448997497559 14.27338123321533 L 20 18.59891128540039 L 18.59893035888672 20.00083160400391 Z" stroke="none" fill="#fff"/>
  </g>
</svg>
