<svg xmlns="http://www.w3.org/2000/svg" width="51.263" height="12.302" viewBox="0 0 51.263 12.302">
  <path id="icon_bluehouse" d="M-923.758-1296.7v-.723h.318v-3.07a6.564,6.564,0,0,1-2.512-1.459l-.048-.043v-.608l.124-.014a28.038,28.038,0,0,0,3.1-.535,32.3,32.3,0,0,0,3.208-2.848l.1-.106.1.106a32.233,32.233,0,0,0,3.206,2.848,28.042,28.042,0,0,0,3.1.535l.124.014v.608l-.048.043c-.148.129-.286.244-.417.348h1.66v-1.2a.8.8,0,0,1-.3-.487,7.874,7.874,0,0,1-2.779-2.032l-.033-.04v-.6l.145,0a22.493,22.493,0,0,0,4.3-.212,25.313,25.313,0,0,0,.545-2.835h.828c-.011.113-.027.247-.04.336a33.8,33.8,0,0,0,4.605.34h8.184a33.893,33.893,0,0,0,4.607-.34c-.013-.089-.029-.223-.04-.336h.827a25.625,25.625,0,0,0,.545,2.835,22.5,22.5,0,0,0,4.3.212l.145,0v.6l-.033.04a7.888,7.888,0,0,1-2.779,2.032.8.8,0,0,1-.3.487v1.2h1.662c-.131-.1-.27-.22-.419-.349l-.048-.043v-.608l.124-.014a28.062,28.062,0,0,0,3.1-.535,32.224,32.224,0,0,0,3.206-2.848l.1-.106.1.106a32.1,32.1,0,0,0,3.207,2.848,28,28,0,0,0,3.1.535l.124.014v.608l-.047.043a6.565,6.565,0,0,1-2.513,1.459v3.07h.319v.723Zm38.788-.723h7.392v-3.082h-7.392Zm-30.579,0h30.3v-.307h-1.489v-2.1h-.55v2.1h-1.855v-2.1h-.576v2.1h-1.854v-2.1h-.576v2.1H-894v-2.1h-.577v2.1h-1.854v-2.3h10.8v-.628c-.157-.061-.3-.123-.442-.188h-11.641l-.046-.2h11.295c-.143-.081-.286-.169-.433-.271h-2.384v-1.646l.08-.037a.5.5,0,0,0,.22-.323H-911.75a.491.491,0,0,0,.219.323l.08.037v1.644h-2.382c-.148.1-.291.192-.435.273h11.3l-.047.2h-11.641c-.143.066-.283.128-.442.192v.624h10.8v2.3h-1.854v-2.1h-.575v2.1h-1.854v-2.1h-.577v2.1h-1.854v-2.1h-.576v2.1h-1.858v-2.1H-914v2.1h-1.548Zm-7.609,0h7.392v-3.082h-7.392Zm38.722-5.487-.024.018-.028.007a28.12,28.12,0,0,1-3.042.53v.232a6.411,6.411,0,0,0,2.468,1.4l.077.028h7.424l.077-.028a6.4,6.4,0,0,0,2.467-1.4v-.232a28.1,28.1,0,0,1-3.04-.53l-.03-.007-.023-.018a33.266,33.266,0,0,1-3.163-2.791A33.291,33.291,0,0,1-884.437-1302.908Zm-38.189,0-.024.018-.03.007a28.025,28.025,0,0,1-3.04.53v.232a6.41,6.41,0,0,0,2.468,1.4l.077.028h7.423l.078-.028a6.416,6.416,0,0,0,2.467-1.4v-.232a28.114,28.114,0,0,1-3.041-.53l-.03-.007-.024-.018a33.466,33.466,0,0,1-3.163-2.791A33.389,33.389,0,0,1-922.626-1302.908Zm8.067-2.555a7.6,7.6,0,0,0,2.679,1.936h23.023a7.608,7.608,0,0,0,2.679-1.936v-.206a22.338,22.338,0,0,1-4.3-.233l-.09-.015-.023-.088a27.591,27.591,0,0,1-.541-2.724h-.273l.053.306-.143.02a34.779,34.779,0,0,1-4.786.36h-8.184a34.748,34.748,0,0,1-4.785-.36l-.143-.02s.036-.237.047-.306h-.266c-.188,1.353-.538,2.71-.542,2.724l-.024.088-.089.015a22.348,22.348,0,0,1-4.3.233Zm35.016,7.737v-1.636h1.5v1.636Zm-2.908,0v-1.636h2.354v1.636Zm-2.054,0v-1.636h1.5v1.636Zm-33.226,0v-1.636h1.5v1.636Zm-2.908,0v-1.636h2.355v1.636Zm-2.054,0v-1.636h1.5v1.636Zm23.943,0v-1.309h1v1.309Zm-2.858,0v-1.309h2.5v1.309Zm-1.377,0v-1.309h1v1.309Zm5.612,0v-1.841l.362-.04v1.881Zm-6.352,0v-1.881l.362.04v1.841Zm.74-1.561v-.2h5.235v.2Zm23.443-.315v-.321h1.5v.321Zm-2.908,0v-.321h2.354v.321Zm-2.054,0v-.321h1.5v.321Zm-33.226,0v-.321h1.5v.321Zm-2.908,0v-.321h2.355v.321Zm-2.054,0v-.321h1.5v.321Zm18.712-.254c.47-.157,1.1-.394,1.1-.394l.179-.744c.747.048,1.763.05,2.339.05s1.591,0,2.339-.05l.178.744s.627.236,1.1.394a33.693,33.693,0,0,1-3.615.133A33.685,33.685,0,0,1-903.983-1299.857Zm12.409-1.47v-.988h1.854v.988Zm-2.43,0v-.988h1.854v.988Zm-2.431,0v-.988h1.853v.988Zm-2.431,0v-.988h1.854v.988Zm-2.43,0v-.988h1.853v.988Zm-2.43,0v-.988h1.853v.988Zm-2.431,0v-.988h1.854v.988Zm-2.43,0v-.988h1.854v.988Zm-2.431,0v-.988h1.855v.988Zm23.672-.762a29.055,29.055,0,0,0,2.9-.521,23.011,23.011,0,0,0,3.168.266,22.975,22.975,0,0,0,3.167-.266,29.086,29.086,0,0,0,2.9.521,25.768,25.768,0,0,1-6.069.7A25.8,25.8,0,0,1-887.345-1302.089Zm-38.188,0a29.081,29.081,0,0,0,2.9-.521,23,23,0,0,0,3.168.266,22.984,22.984,0,0,0,3.168-.266,29.087,29.087,0,0,0,2.9.521,25.767,25.767,0,0,1-6.069.7A25.773,25.773,0,0,1-925.533-1302.089Zm33.959-.439v-.309h1.854v.309Zm-2.43,0v-.309h1.854v.309Zm-2.431,0v-.309h1.853v.309Zm-2.431,0v-.309h1.854v.309Zm-2.43,0v-.309h1.853v.309Zm-2.43,0v-.309h1.853v.309Zm-2.431,0v-.309h1.854v.309Zm-2.43,0v-.309h1.854v.309Zm-2.431,0v-.309h1.855v.309Zm29.4-2.1a25.488,25.488,0,0,1-2.127,1.818l-.034,0-.318-.046.256-.2a28.458,28.458,0,0,0,2.492-2.207l.094-.092.094.092a28.445,28.445,0,0,0,2.493,2.207l.256.2-.319.046c-.224.033-.466.065-.722.094C-880.05-1303.2-881.01-1304.033-881.62-1304.623Zm-40.368,1.814-.319-.046.256-.2a28.46,28.46,0,0,0,2.493-2.207l.094-.092.094.092a28.463,28.463,0,0,0,2.493,2.207l.256.2-.319.046-.033,0a25.628,25.628,0,0,1-2.128-1.818c-.608.59-1.569,1.421-2.165,1.909C-921.522-1302.744-921.763-1302.776-921.987-1302.809Zm13.7-1.479a18.8,18.8,0,0,1-6.051-1.076,19.082,19.082,0,0,0,4.378-.3c.159-.581.37-1.588.5-2.371a36.446,36.446,0,0,0,4.961.375h8.258a36.41,36.41,0,0,0,4.961-.375c.133.783.343,1.79.5,2.371a19.089,19.089,0,0,0,4.379.3,18.8,18.8,0,0,1-6.051,1.076Z" transform="translate(926 1309)" fill="#fff"/>
</svg>
