<svg id="icon_global" xmlns="http://www.w3.org/2000/svg" width="20" height="20" viewBox="0 0 20 20">
  <path id="패스_1324" data-name="패스 1324" d="M0,0H20V20H0Z" fill="none"/>
  <path id="패스_1325" data-name="패스 1325" d="M10,2a8,8,0,1,0,8,8A8,8,0,0,0,10,2ZM3.6,10a6.422,6.422,0,0,1,.168-1.424L7.592,12.4v.8a1.6,1.6,0,0,0,1.6,1.6v1.544A6.409,6.409,0,0,1,3.6,10Zm11.112,4.32a1.594,1.594,0,0,0-1.52-1.12h-.8V10.8a.8.8,0,0,0-.8-.8h-4.8V8.4h1.6a.8.8,0,0,0,.8-.8V6h1.6a1.6,1.6,0,0,0,1.6-1.6V4.072a6.382,6.382,0,0,1,2.32,10.248Z" fill="#fff"/>
</svg>
