<svg xmlns="http://www.w3.org/2000/svg" xmlns:xlink="http://www.w3.org/1999/xlink" width="126" height="62" viewBox="0 0 126 62">
  <defs>
    <clipPath id="clip-path">
      <rect id="사각형_93" data-name="사각형 93" width="124.411" height="61.414" fill="#fff"/>
    </clipPath>
  </defs>
  <g id="logo" transform="translate(1)">
    <rect id="사각형_57" data-name="사각형 57" width="4.501" height="2.398" transform="translate(36.363 16.224)" fill="#fff"/>
    <rect id="사각형_58" data-name="사각형 58" width="4.5" height="2.398" transform="translate(42.262 16.224)" fill="#fff"/>
    <rect id="사각형_59" data-name="사각형 59" width="4.5" height="2.398" transform="translate(48.159 16.224)" fill="#fff"/>
    <rect id="사각형_60" data-name="사각형 60" width="4.498" height="2.398" transform="translate(54.059 16.224)" fill="#fff"/>
    <rect id="사각형_61" data-name="사각형 61" width="4.499" height="2.398" transform="translate(59.956 16.224)" fill="#fff"/>
    <rect id="사각형_62" data-name="사각형 62" width="4.501" height="0.751" transform="translate(36.363 14.958)" fill="#fff"/>
    <rect id="사각형_63" data-name="사각형 63" width="4.5" height="0.751" transform="translate(42.262 14.958)" fill="#fff"/>
    <rect id="사각형_64" data-name="사각형 64" width="4.5" height="0.751" transform="translate(48.159 14.958)" fill="#fff"/>
    <rect id="사각형_65" data-name="사각형 65" width="4.498" height="0.751" transform="translate(54.059 14.958)" fill="#fff"/>
    <rect id="사각형_66" data-name="사각형 66" width="4.499" height="0.751" transform="translate(59.956 14.958)" fill="#fff"/>
    <rect id="사각형_67" data-name="사각형 67" width="4.5" height="2.398" transform="translate(83.549 16.224)" fill="#fff"/>
    <rect id="사각형_68" data-name="사각형 68" width="4.5" height="2.398" transform="translate(77.651 16.224)" fill="#fff"/>
    <rect id="사각형_69" data-name="사각형 69" width="4.499" height="2.398" transform="translate(71.752 16.224)" fill="#fff"/>
    <rect id="사각형_70" data-name="사각형 70" width="4.5" height="2.398" transform="translate(65.854 16.224)" fill="#fff"/>
    <rect id="사각형_71" data-name="사각형 71" width="4.5" height="0.751" transform="translate(83.549 14.958)" fill="#fff"/>
    <rect id="사각형_72" data-name="사각형 72" width="4.5" height="0.751" transform="translate(77.651 14.958)" fill="#fff"/>
    <rect id="사각형_73" data-name="사각형 73" width="4.499" height="0.751" transform="translate(71.752 14.958)" fill="#fff"/>
    <rect id="사각형_74" data-name="사각형 74" width="4.5" height="0.751" transform="translate(65.854 14.958)" fill="#fff"/>
    <g id="그룹_17" data-name="그룹 17">
      <g id="그룹_16" data-name="그룹 16" clip-path="url(#clip-path)">
        <path id="패스_1273" data-name="패스 1273" d="M125.019,15.051c3.656,0,11.306-1,14.683-2.611a46.224,46.224,0,0,1-10.626-.725c-.387-1.409-.9-3.852-1.22-5.753a88.343,88.343,0,0,1-12.04.909H95.773a88.4,88.4,0,0,1-12.041-.909c-.321,1.9-.833,4.344-1.219,5.753a46.219,46.219,0,0,1-10.625.725c3.378,1.613,11.026,2.611,14.684,2.611Z" transform="translate(-43.589 -3.615)" fill="#fff"/>
        <path id="패스_1274" data-name="패스 1274" d="M150.185,49.356c-1.815.116-4.28.119-5.677.119s-3.863,0-5.677-.119l-.434,1.806s-1.52.572-2.662.954a81.639,81.639,0,0,0,8.772.324,81.651,81.651,0,0,0,8.773-.324c-1.142-.383-2.662-.954-2.662-.954Z" transform="translate(-82.302 -29.927)" fill="#fff"/>
        <rect id="사각형_75" data-name="사각형 75" width="12.705" height="0.488" transform="translate(55.854 23.08)" fill="#fff"/>
        <path id="패스_1275" data-name="패스 1275" d="M137.325,62.465h.879v-4.47s-.5-.054-.879-.1Z" transform="translate(-83.266 -35.106)" fill="#fff"/>
        <path id="패스_1276" data-name="패스 1276" d="M176.483,62.465h.879V57.9c-.377.043-.879.1-.879.1Z" transform="translate(-107.009 -35.106)" fill="#fff"/>
        <rect id="사각형_76" data-name="사각형 76" width="5.715" height="3.973" transform="translate(13.007 23.389)" fill="#fff"/>
        <rect id="사각형_77" data-name="사각형 77" width="3.643" height="3.973" transform="translate(8.022 23.389)" fill="#fff"/>
        <rect id="사각형_78" data-name="사각형 78" width="5.715" height="0.779" transform="translate(13.007 22.025)" fill="#fff"/>
        <rect id="사각형_79" data-name="사각형 79" width="3.643" height="0.779" transform="translate(8.022 22.025)" fill="#fff"/>
        <rect id="사각형_80" data-name="사각형 80" width="3.642" height="3.973" transform="translate(20.065 23.389)" fill="#fff"/>
        <rect id="사각형_81" data-name="사각형 81" width="3.642" height="0.779" transform="translate(20.065 22.025)" fill="#fff"/>
        <path id="패스_1277" data-name="패스 1277" d="M32.342,40.662A70.372,70.372,0,0,1,25.3,39.4a55.81,55.81,0,0,1-7.688.645A55.809,55.809,0,0,1,9.924,39.4a70.412,70.412,0,0,1-7.043,1.264,62.546,62.546,0,0,0,14.73,1.709,62.55,62.55,0,0,0,14.731-1.709" transform="translate(-1.747 -23.889)" fill="#fff"/>
        <rect id="사각형_82" data-name="사각형 82" width="5.714" height="3.973" transform="translate(105.689 23.389)" fill="#fff"/>
        <rect id="사각형_83" data-name="사각형 83" width="3.644" height="3.973" transform="translate(112.747 23.389)" fill="#fff"/>
        <rect id="사각형_84" data-name="사각형 84" width="5.714" height="0.779" transform="translate(105.689 22.025)" fill="#fff"/>
        <rect id="사각형_85" data-name="사각형 85" width="3.644" height="0.779" transform="translate(112.747 22.025)" fill="#fff"/>
        <rect id="사각형_86" data-name="사각형 86" width="3.642" height="3.973" transform="translate(100.703 23.389)" fill="#fff"/>
        <rect id="사각형_87" data-name="사각형 87" width="3.642" height="0.779" transform="translate(100.703 22.025)" fill="#fff"/>
        <path id="패스_1278" data-name="패스 1278" d="M83.219,0c.026.274.065.6.1.817a82.448,82.448,0,0,1-11.18.824H52.275A82.177,82.177,0,0,1,41.1.817c.031-.217.07-.543.1-.817H39.186a61.651,61.651,0,0,1-1.322,6.88,54.6,54.6,0,0,1-10.427.515l-.352-.012V8.838l.081.1a19.118,19.118,0,0,0,6.745,4.931,1.928,1.928,0,0,0,.718,1.182v2.906H30.6c.318-.252.655-.532,1.013-.845l.116-.1V15.531l-.3-.035a68.078,68.078,0,0,1-7.535-1.3,78.367,78.367,0,0,1-7.781-6.911l-.248-.26-.246.26A78.667,78.667,0,0,1,7.836,14.2,68.144,68.144,0,0,1,.3,15.5l-.3.035v1.475l.117.1a15.9,15.9,0,0,0,6.1,3.542V28.1H5.442v1.756h113.53V28.1H118.2V20.651a15.9,15.9,0,0,0,6.1-3.542l.115-.1V15.531l-.3-.035a68.08,68.08,0,0,1-7.534-1.3,78.164,78.164,0,0,1-7.783-6.911l-.246-.26-.248.26a78.46,78.46,0,0,1-7.781,6.911,68.171,68.171,0,0,1-7.537,1.3l-.3.035v1.475l.116.1c.361.315.7.6,1.016.848H89.783v-2.91a1.923,1.923,0,0,0,.719-1.182,19.133,19.133,0,0,0,6.746-4.931l.08-.1V7.382l-.351.012A54.63,54.63,0,0,1,86.549,6.88,61.768,61.768,0,0,1,85.227,0Zm1.414.657a67.039,67.039,0,0,0,1.31,6.611L86,7.481l.218.037a54,54,0,0,0,10.427.564v.5a18.441,18.441,0,0,1-6.5,4.7H34.27a18.433,18.433,0,0,1-6.5-4.7v-.5A54.027,54.027,0,0,0,38.2,7.519l.216-.037.057-.214c.009-.034.856-3.327,1.314-6.611h.646c-.025.167-.113.742-.113.742l.346.05a84.377,84.377,0,0,0,11.613.874H72.136a84.443,84.443,0,0,0,11.615-.874L84.1,1.4,83.971.657ZM97.962,21.768H71.753v5.591h4.5v-5.1h1.4v5.1h4.5v-5.1h1.4v5.1h4.5v-5.1h1.4v5.1h4.5v-5.1h1.335v5.1h3.613V28.1H25.364v-.742h3.757v-5.1h1.334v5.1h4.51v-5.1h1.4v5.1h4.5v-5.1h1.4v5.1h4.5v-5.1h1.4v5.1h4.5V21.768H26.452V20.251c.384-.154.724-.3,1.072-.465H55.776l.113-.488H28.476c.349-.2.7-.413,1.054-.663h5.78V14.646l-.193-.092a1.185,1.185,0,0,1-.533-.784H89.829a1.2,1.2,0,0,1-.535.784l-.194.092v3.994h5.786c.358.246.7.462,1.051.657H68.525l.112.488H96.889c.342.158.693.308,1.073.457ZM.681,16.133a68.315,68.315,0,0,0,7.378-1.288l.073-.016.058-.046a80.944,80.944,0,0,0,7.675-6.773,80.964,80.964,0,0,0,7.675,6.773l.058.046.073.016a68.5,68.5,0,0,0,7.378,1.288V16.7a15.555,15.555,0,0,1-5.988,3.4l-.189.068H6.857L6.67,20.09a15.543,15.543,0,0,1-5.99-3.4ZM6.9,20.622H24.837V28.1H6.9Zm92.682,0h17.939V28.1H99.578Zm24.152-3.927a15.525,15.525,0,0,1-5.986,3.4l-.188.068H99.539l-.187-.068a15.552,15.552,0,0,1-5.99-3.4v-.562a68.418,68.418,0,0,0,7.38-1.288l.07-.016.058-.046a80.632,80.632,0,0,0,7.677-6.773,80.6,80.6,0,0,0,7.676,6.773l.057.046.073.016a68.48,68.48,0,0,0,7.376,1.288Z" fill="#fff"/>
        <path id="패스_1279" data-name="패스 1279" d="M253.047,40.043a55.831,55.831,0,0,1-7.689-.645,70.289,70.289,0,0,1-7.044,1.264,62.586,62.586,0,0,0,14.732,1.709,62.547,62.547,0,0,0,14.731-1.709,70.33,70.33,0,0,1-7.044-1.264,55.788,55.788,0,0,1-7.687.645" transform="translate(-144.5 -23.889)" fill="#fff"/>
        <rect id="사각형_88" data-name="사각형 88" width="6.064" height="3.176" transform="translate(59.196 24.183)" fill="#fff"/>
        <rect id="사각형_89" data-name="사각형 89" width="2.429" height="3.176" transform="translate(55.854 24.183)" fill="#fff"/>
        <rect id="사각형_90" data-name="사각형 90" width="2.427" height="3.176" transform="translate(66.131 24.183)" fill="#fff"/>
        <path id="패스_1280" data-name="패스 1280" d="M35.719,28.668c.026,0,.054-.008.081-.011l.774-.113-.622-.481A69.287,69.287,0,0,1,29.9,22.706l-.228-.224-.228.224a69.477,69.477,0,0,1-6.05,5.357l-.622.481.774.113c.543.079,1.13.157,1.752.229,1.448-1.183,3.779-3.2,5.255-4.632a62.67,62.67,0,0,0,5.164,4.414" transform="translate(-13.809 -13.632)" fill="#fff"/>
        <path id="패스_1281" data-name="패스 1281" d="M259.18,28.668c-.025,0-.055-.008-.081-.011l-.774-.113.622-.481A69.34,69.34,0,0,0,265,22.706l.229-.224.228.224a69.766,69.766,0,0,0,6.051,5.357l.622.481-.774.113c-.543.079-1.131.157-1.751.229-1.448-1.183-3.779-3.2-5.258-4.632a62.184,62.184,0,0,1-5.162,4.414" transform="translate(-156.633 -13.632)" fill="#fff"/>
        <path id="패스_1282" data-name="패스 1282" d="M231.118,117.872h-.749v.428c.565,0,.749.524.749,1.007v3.144h-1.157v-4.578H226.84v.428a.882.882,0,0,1,.932,1.007v6.445a38.688,38.688,0,0,1-4.827.561v-5.961h2.7V119.17h-5.819v.427a.884.884,0,0,1,.933,1.008v7.247a18.969,18.969,0,0,0,7.011-1.233v5.72h2.189v-8.7h1.157v8.7h2.19V117.872Z" transform="translate(-133.291 -71.471)" fill="#fff"/>
        <path id="패스_1283" data-name="패스 1283" d="M68.9,125.117l1.513-1.305-3.372-2.157a9.536,9.536,0,0,0,1.926-3.117H66.421v-1.547H64.23v1.547H61.742v1.18h3.837c-.272,1.708-2.11,3.915-4.68,5.122l.3.566a11.854,11.854,0,0,0,4.919-2.815Z" transform="translate(-36.926 -70.936)" fill="#fff"/>
        <path id="패스_1284" data-name="패스 1284" d="M76.78,139.2c-2.188,0-3.965,1.481-3.965,3.306s1.777,3.309,3.965,3.309,3.967-1.483,3.967-3.309S78.969,139.2,76.78,139.2m0,5.46a2.177,2.177,0,1,1,1.869-2.154,2.024,2.024,0,0,1-1.869,2.154" transform="translate(-44.151 -84.403)" fill="#fff"/>
        <path id="패스_1285" data-name="패스 1285" d="M84.214,117.872v.428a.883.883,0,0,1,.929,1.007v1.852H82.693v1.182h2.451v3.773h2.187v-8.242H84.214Z" transform="translate(-50.14 -71.471)" fill="#fff"/>
        <path id="패스_1286" data-name="패스 1286" d="M153.062,117.872h-3.121v.428a.88.88,0,0,1,.928,1.007v7.506c-1.249.192-2.949.356-4.62.479v-1.843a3.61,3.61,0,0,0,2.974-3.346c0-1.918-1.821-3.474-4.068-3.474a3.805,3.805,0,0,0-4.065,3.474,3.608,3.608,0,0,0,2.968,3.345v1.98c-1.325.065-2.375.1-3.554.1v1.531c3.661-.186,7.507-.43,10.366-1.44v4.716h2.193v-8.548h2.428v-1.181h-2.428Zm-7.909,1.862A2.443,2.443,0,1,1,143.3,122.1a2.155,2.155,0,0,1,1.848-2.368" transform="translate(-85.193 -71.471)" fill="#fff"/>
        <path id="패스_1287" data-name="패스 1287" d="M146.919,90.575v-1.97h-1.572v.217a.443.443,0,0,1,.469.507v4.414h1.1V91.17H148v-.6Z" transform="translate(-88.13 -53.725)" fill="#fff"/>
        <path id="패스_1288" data-name="패스 1288" d="M137.688,100.592h-1.572v.217a.444.444,0,0,1,.47.507v1.762h4.822v-.6h-3.719Z" transform="translate(-82.533 -60.993)" fill="#fff"/>
        <path id="패스_1289" data-name="패스 1289" d="M137.111,90.841a1.494,1.494,0,0,0-.585-1.157h1.063v-.6h-1.807v-.743h-1.1v.743h-1.791v.6h1.037a1.492,1.492,0,0,0-.584,1.157,1.911,1.911,0,0,0,3.772,0m-2.693,0a.828.828,0,1,1,.808,1.018.93.93,0,0,1-.808-1.018" transform="translate(-80.575 -53.567)" fill="#fff"/>
        <path id="패스_1290" data-name="패스 1290" d="M178.461,89.329v4.414h1.107V88.605h-1.574v.217a.443.443,0,0,1,.467.507" transform="translate(-107.925 -53.725)" fill="#fff"/>
        <path id="패스_1291" data-name="패스 1291" d="M170.332,102.482v-1.889h-1.573v.216a.443.443,0,0,1,.469.507v1.762h4.823v-.6Z" transform="translate(-102.326 -60.994)" fill="#fff"/>
        <path id="패스_1292" data-name="패스 1292" d="M165.819,93.266h3.727V89.735h-4.195v.215a.444.444,0,0,1,.468.508Zm1.1-2.935h1.52v2.34h-1.52Z" transform="translate(-100.259 -54.41)" fill="#fff"/>
        <path id="패스_1293" data-name="패스 1293" d="M204.053,92.2V91.6h-1.46a3.441,3.441,0,0,0,.685-2.445h-5.764v.6h4.66a4.611,4.611,0,0,1-.346,1.849h-5.095V92.2h3.1V93.5h-2.223V94.1h4.465v2.124h1.1V93.5H200.94V92.2Z" transform="translate(-119.287 -54.061)" fill="#fff"/>
        <path id="패스_1294" data-name="패스 1294" d="M106.407,88.6h-.378v.215c.285,0,.378.263.378.508v1.584h-.583V88.6h-1.574v.215a.445.445,0,0,1,.47.508v3.25a19.682,19.682,0,0,1-2.434.283V89.853h1.363v-.6h-2.935v.214a.447.447,0,0,1,.47.509v3.653a9.563,9.563,0,0,0,3.536-.622V95.9h1.1v-4.39h.583V95.9h1.105V88.6Z" transform="translate(-61.067 -53.724)" fill="#fff"/>
        <rect id="사각형_91" data-name="사각형 91" width="29.038" height="0.73" transform="translate(5.442 38.138)" fill="#fff"/>
        <rect id="사각형_92" data-name="사각형 92" width="28.599" height="0.73" transform="translate(90.373 38.138)" fill="#fff"/>
      </g>
    </g>
    <rect id="사각형_470" data-name="사각형 470" width="126" height="62" transform="translate(-1)" fill="none"/>
  </g>
</svg>
