<svg width="26" height="26" viewBox="0 0 26 26" fill="none" xmlns="http://www.w3.org/2000/svg">
<path d="M21.5583 22.7229L14.4354 15.6C13.8938 16.0694 13.2618 16.4351 12.5396 16.6969C11.8174 16.9587 11.05 17.0896 10.2375 17.0896C8.2875 17.0896 6.63542 16.4125 5.28125 15.0583C3.92708 13.7042 3.25 12.0701 3.25 10.1562C3.25 8.24235 3.92708 6.60832 5.28125 5.25415C6.63542 3.89998 8.27847 3.2229 10.2104 3.2229C12.1243 3.2229 13.7538 3.89998 15.099 5.25415C16.4441 6.60832 17.1167 8.24235 17.1167 10.1562C17.1167 10.9326 16.9903 11.6819 16.7375 12.4042C16.4847 13.1264 16.1056 13.8035 15.6 14.4354L22.75 21.5312L21.5583 22.7229ZM10.2104 15.4646C11.6729 15.4646 12.9188 14.9455 13.9479 13.9073C14.9771 12.8691 15.4917 11.6187 15.4917 10.1562C15.4917 8.69373 14.9771 7.44339 13.9479 6.40519C12.9188 5.367 11.6729 4.8479 10.2104 4.8479C8.72986 4.8479 7.47049 5.367 6.43229 6.40519C5.3941 7.44339 4.875 8.69373 4.875 10.1562C4.875 11.6187 5.3941 12.8691 6.43229 13.9073C7.47049 14.9455 8.72986 15.4646 10.2104 15.4646Z" fill="black" fill-opacity="0.4"/>
</svg>
