<svg width="24" height="25" viewBox="0 0 24 25" fill="none" xmlns="http://www.w3.org/2000/svg">
<path d="M14.047 18.7777L8.74286 15.9157C8.05037 16.6481 7.15121 17.1576 6.16223 17.3778C5.17326 17.598 4.1402 17.5188 3.19732 17.1505C2.25443 16.7822 1.44531 16.1418 0.875111 15.3126C0.304912 14.4833 0 13.5036 0 12.5006C0 11.4977 0.304912 10.5179 0.875111 9.68866C1.44531 8.85942 2.25443 8.21903 3.19732 7.85073C4.1402 7.48242 5.17326 7.40324 6.16223 7.62346C7.15121 7.84367 8.05037 8.35311 8.74286 9.08557L14.0483 6.22355C13.7471 5.04384 13.8911 3.79594 14.4533 2.71376C15.0155 1.63158 15.9574 0.78943 17.1023 0.345155C18.2472 -0.0991207 19.5166 -0.115014 20.6725 0.300453C21.8284 0.715921 22.7915 1.53422 23.3812 2.60198C23.9709 3.66973 24.1468 4.91363 23.8759 6.1005C23.6049 7.28737 22.9058 8.33574 21.9095 9.04909C20.9132 9.76244 19.6881 10.0918 18.4639 9.97541C17.2397 9.85904 16.1005 9.30492 15.2597 8.41693L9.95426 11.279C10.1579 12.0805 10.1579 12.9195 9.95426 13.721L15.2584 16.5831C16.0992 15.6951 17.2385 15.141 18.4627 15.0246C19.6868 14.9082 20.9119 15.2376 21.9082 15.9509C22.9045 16.6643 23.6037 17.7126 23.8746 18.8995C24.1455 20.0864 23.9696 21.3303 23.3799 22.398C22.7902 23.4658 21.8271 24.2841 20.6712 24.6995C19.5153 25.115 18.2459 25.0991 17.101 24.6548C15.9561 24.2106 15.0143 23.3684 14.4521 22.2862C13.8898 21.2041 13.7458 19.9562 14.047 18.7765V18.7777ZM5.05305 14.9996C5.7231 14.9996 6.3657 14.7362 6.83949 14.2675C7.31328 13.7987 7.57945 13.1629 7.57945 12.5C7.57945 11.8371 7.31328 11.2013 6.83949 10.7325C6.3657 10.2638 5.7231 10.0004 5.05305 10.0004C4.38301 10.0004 3.74041 10.2638 3.26662 10.7325C2.79283 11.2013 2.52666 11.8371 2.52666 12.5C2.52666 13.1629 2.79283 13.7987 3.26662 14.2675C3.74041 14.7362 4.38301 14.9996 5.05305 14.9996ZM18.9482 7.50083C19.6183 7.50083 20.2609 7.23749 20.7347 6.76872C21.2085 6.29996 21.4746 5.66418 21.4746 5.00125C21.4746 4.33832 21.2085 3.70254 20.7347 3.23378C20.2609 2.76502 19.6183 2.50167 18.9482 2.50167C18.2782 2.50167 17.6356 2.76502 17.1618 3.23378C16.688 3.70254 16.4218 4.33832 16.4218 5.00125C16.4218 5.66418 16.688 6.29996 17.1618 6.76872C17.6356 7.23749 18.2782 7.50083 18.9482 7.50083ZM18.9482 22.4983C19.6183 22.4983 20.2609 22.235 20.7347 21.7662C21.2085 21.2975 21.4746 20.6617 21.4746 19.9988C21.4746 19.3358 21.2085 18.7 20.7347 18.2313C20.2609 17.7625 19.6183 17.4992 18.9482 17.4992C18.2782 17.4992 17.6356 17.7625 17.1618 18.2313C16.688 18.7 16.4218 19.3358 16.4218 19.9988C16.4218 20.6617 16.688 21.2975 17.1618 21.7662C17.6356 22.235 18.2782 22.4983 18.9482 22.4983Z" fill="#595959"/>
</svg>
