<svg width="81" height="20" viewBox="0 0 81 20" fill="none" xmlns="http://www.w3.org/2000/svg">
<path d="M9.23334 12.696C9.23334 14.328 8.87934 15.564 8.17134 16.404C7.46334 17.256 6.31734 17.682 4.73334 17.682C3.14934 17.682 1.99734 17.256 1.27734 16.404C0.569344 15.564 0.215344 14.328 0.215344 12.696V6.18C0.215344 4.548 0.569344 3.312 1.27734 2.472C1.99734 1.62 3.14934 1.194 4.73334 1.194C6.31734 1.194 7.46334 1.62 8.17134 2.472C8.87934 3.312 9.23334 4.548 9.23334 6.18V12.696ZM7.00134 6.108C7.00134 5.052 6.82134 4.272 6.46134 3.768C6.10134 3.264 5.52534 3.012 4.73334 3.012C3.94134 3.012 3.35934 3.264 2.98734 3.768C2.62734 4.272 2.44734 5.052 2.44734 6.108V12.768C2.44734 13.824 2.62734 14.604 2.98734 15.108C3.35934 15.612 3.94134 15.864 4.73334 15.864C5.52534 15.864 6.10134 15.612 6.46134 15.108C6.82134 14.604 7.00134 13.824 7.00134 12.768V6.108ZM16.4333 6.954H13.8773V11.04H16.4333V12.876H13.8773V17.826H11.6633V1.14H13.8773V5.118H16.4333V6.954ZM23.5878 3.21V3.876C23.5878 4.464 23.7018 5.004 23.9298 5.496C24.1578 5.976 24.4518 6.402 24.8118 6.774C25.1838 7.146 25.6038 7.464 26.0718 7.728C26.5518 7.992 27.0438 8.196 27.5478 8.34L26.5218 9.96C25.8018 9.78 25.0938 9.444 24.3978 8.952C23.7138 8.46 23.0958 7.812 22.5438 7.008C22.0398 7.8 21.4218 8.49 20.6898 9.078C19.9578 9.666 19.1418 10.134 18.2418 10.482L17.2158 8.952C17.8398 8.7 18.4038 8.412 18.9078 8.088C19.4238 7.752 19.8618 7.38 20.2218 6.972C20.5818 6.552 20.8578 6.096 21.0498 5.604C21.2538 5.1 21.3558 4.548 21.3558 3.948V3.21H17.9178V1.374H27.0078V3.21H23.5878ZM18.5658 13.452V11.652H32.7858V17.898H30.5718V13.452H18.5658ZM32.7858 1.14V10.842H30.5718V6.54H26.7738V4.704H30.5718V1.14H32.7858ZM39.5982 17.826C38.3262 17.826 37.3842 17.562 36.7722 17.034C36.1722 16.518 35.8722 15.714 35.8722 14.622C35.8722 13.53 36.1722 12.732 36.7722 12.228C37.3842 11.724 38.3262 11.472 39.5982 11.472H45.8082C47.0802 11.472 48.0162 11.724 48.6162 12.228C49.2282 12.732 49.5342 13.53 49.5342 14.622C49.5342 15.714 49.2282 16.518 48.6162 17.034C48.0162 17.562 47.0802 17.826 45.8082 17.826H39.5982ZM35.5122 10.122V4.848H42.2802V3.21H35.4762V1.374H44.5302V6.684H37.7442V8.322H45.5022V10.122H35.5122ZM51.7302 4.956H49.1742V6.918H51.7302V8.736H49.1742V10.662H46.9602V1.14H49.1742V3.138H51.7302V4.956ZM38.0502 14.622C38.0502 15.054 38.1822 15.396 38.4462 15.648C38.7102 15.912 39.2142 16.044 39.9582 16.044H45.4482C46.1802 16.044 46.6782 15.912 46.9422 15.648C47.2182 15.396 47.3562 15.054 47.3562 14.622C47.3562 14.19 47.2182 13.854 46.9422 13.614C46.6782 13.374 46.1802 13.254 45.4482 13.254H39.9582C39.2142 13.254 38.7102 13.374 38.4462 13.614C38.1822 13.854 38.0502 14.19 38.0502 14.622Z" fill="#0064FF"/>
<path d="M63.0382 2.23883L59.1194 6.15758L58 5.03817L63.0382 8.80901e-07L68.0763 5.03817L66.9569 6.15758L63.0382 2.23883Z" fill="#0064FF"/>
<rect x="62" y="2" width="2" height="15" fill="#0064FF"/>
<path d="M73.038 14.7612L76.9568 10.8424L78.0762 11.9618L73.038 17L67.9998 11.9618L69.1193 10.8424L73.038 14.7612Z" fill="#0064FF55"/>
<rect x="74.0762" y="15" width="2" height="15" transform="rotate(-180 74.0762 15)" fill="#0064FF55"/>
</svg>
